<svg width="60" height="80" viewBox="0 0 60 80" fill="none" xmlns="http://www.w3.org/2000/svg">
<path d="M28.4219 40.0156C27.6406 37.5156 27.6562 32.6875 28.1094 32.6875C29.4219 32.6875 29.2969 38.4531 28.4219 40.0156ZM28.1562 47.3906C26.9531 50.5469 25.4531 54.1563 23.7188 57.1875C26.5781 56.0938 29.8125 54.5 33.5469 53.7656C31.5625 52.2656 29.6562 50.1094 28.1562 47.3906ZM13.4531 66.8906C13.4531 67.0156 15.5156 66.0469 18.9062 60.6094C17.8594 61.5937 14.3594 64.4375 13.4531 66.8906ZM38.75 25H60V76.25C60 78.3281 58.3281 80 56.25 80H3.75C1.67187 80 0 78.3281 0 76.25V3.75C0 1.67187 1.67187 0 3.75 0H35V21.25C35 23.3125 36.6875 25 38.75 25ZM37.5 51.8437C34.375 49.9375 32.2969 47.3125 30.8281 43.4375C31.5313 40.5469 32.6406 36.1563 31.7969 33.4063C31.0625 28.8125 25.1719 29.2656 24.3281 32.3438C23.5469 35.2031 24.2656 39.2344 25.5938 44.375C23.7813 48.6875 21.1094 54.4687 19.2188 57.7812C19.2031 57.7812 19.2031 57.7969 19.1875 57.7969C14.9531 59.9687 7.6875 64.75 10.6719 68.4219C11.5469 69.5 13.1719 69.9844 14.0313 69.9844C16.8281 69.9844 19.6094 67.1719 23.5781 60.3281C27.6094 59 32.0312 57.3437 35.9219 56.7031C39.3125 58.5469 43.2812 59.75 45.9219 59.75C50.4844 59.75 50.7969 54.75 49 52.9688C46.8281 50.8437 40.5156 51.4531 37.5 51.8437V51.8437ZM58.9062 16.4062L43.5938 1.09375C42.8906 0.390625 41.9375 0 40.9375 0H40V20H60V19.0469C60 18.0625 59.6094 17.1094 58.9062 16.4062ZM47.3281 56.2969C47.9687 55.875 46.9375 54.4375 40.6406 54.8906C46.4375 57.3594 47.3281 56.2969 47.3281 56.2969Z" fill="black"/>
</svg>
